solid cylinder_channel_r125_8x3
  facet normal 0.92387953251128707 0.38268343236508923 0
    outer loop
      vertex 1.125 0.5 0
      vertex 1.0883883476483185 0.58838834764831849 0
      vertex 1.0883883476483185 0.58838834764831849 0.083333333333333329
    endloop
  endfacet
  facet normal 0.92387953251128707 0.38268343236508923 -0
    outer loop
      vertex 1.125 0.5 0
      vertex 1.0883883476483185 0.58838834764831849 0.083333333333333329
      vertex 1.125 0.5 0.083333333333333329
    endloop
  endfacet
  facet normal 0.38268343236508923 0.92387953251128707 0
    outer loop
      vertex 1.0883883476483185 0.58838834764831849 0
      vertex 1 0.625 0
      vertex 1 0.625 0.083333333333333329
    endloop
  endfacet
  facet normal 0.38268343236508923 0.92387953251128707 -0
    outer loop
      vertex 1.0883883476483185 0.58838834764831849 0
      vertex 1 0.625 0.083333333333333329
      vertex 1.0883883476483185 0.58838834764831849 0.083333333333333329
    endloop
  endfacet
  facet normal -0.38268343236508923 0.92387953251128707 0
    outer loop
      vertex 1 0.625 0
      vertex 0.91161165235168151 0.58838834764831849 0
      vertex 0.91161165235168151 0.58838834764831849 0.083333333333333329
    endloop
  endfacet
  facet normal -0.38268343236508923 0.92387953251128707 0
    outer loop
      vertex 1 0.625 0
      vertex 0.91161165235168151 0.58838834764831849 0.083333333333333329
      vertex 1 0.625 0.083333333333333329
    endloop
  endfacet
  facet normal -0.92387953251128707 0.38268343236508923 0
    outer loop
      vertex 0.91161165235168151 0.58838834764831849 0
      vertex 0.875 0.5 0
      vertex 0.875 0.5 0.083333333333333329
    endloop
  endfacet
  facet normal -0.92387953251128707 0.38268343236508923 0
    outer loop
      vertex 0.91161165235168151 0.58838834764831849 0
      vertex 0.875 0.5 0.083333333333333329
      vertex 0.91161165235168151 0.58838834764831849 0.083333333333333329
    endloop
  endfacet
  facet normal -0.92387953251128685 -0.38268343236508939 0
    outer loop
      vertex 0.875 0.5 0
      vertex 0.91161165235168151 0.41161165235168157 0
      vertex 0.91161165235168151 0.41161165235168157 0.083333333333333329
    endloop
  endfacet
  facet normal -0.92387953251128685 -0.38268343236508939 0
    outer loop
      vertex 0.875 0.5 0
      vertex 0.91161165235168151 0.41161165235168157 0.083333333333333329
      vertex 0.875 0.5 0.083333333333333329
    endloop
  endfacet
  facet normal -0.38268343236508967 -0.92387953251128685 0
    outer loop
      vertex 0.91161165235168151 0.41161165235168157 0
      vertex 1 0.375 0
      vertex 1 0.375 0.083333333333333329
    endloop
  endfacet
  facet normal -0.38268343236508967 -0.92387953251128685 0
    outer loop
      vertex 0.91161165235168151 0.41161165235168157 0
      vertex 1 0.375 0.083333333333333329
      vertex 0.91161165235168151 0.41161165235168157 0.083333333333333329
    endloop
  endfacet
  facet normal 0.38268343236508923 -0.92387953251128707 0
    outer loop
      vertex 1 0.375 0
      vertex 1.0883883476483185 0.41161165235168151 0
      vertex 1.0883883476483185 0.41161165235168151 0.083333333333333329
    endloop
  endfacet
  facet normal 0.38268343236508923 -0.92387953251128707 0
    outer loop
      vertex 1 0.375 0
      vertex 1.0883883476483185 0.41161165235168151 0.083333333333333329
      vertex 1 0.375 0.083333333333333329
    endloop
  endfacet
  facet normal 0.92387953251128707 -0.38268343236508923 0
    outer loop
      vertex 1.0883883476483185 0.41161165235168151 0
      vertex 1.125 0.5 0
      vertex 1.125 0.5 0.083333333333333329
    endloop
  endfacet
  facet normal 0.92387953251128707 -0.38268343236508923 0
    outer loop
      vertex 1.0883883476483185 0.41161165235168151 0
      vertex 1.125 0.5 0.083333333333333329
      vertex 1.0883883476483185 0.41161165235168151 0.083333333333333329
    endloop
  endfacet
  facet normal 0.92387953251128707 0.38268343236508923 0
    outer loop
      vertex 1.125 0.5 0.083333333333333329
      vertex 1.0883883476483185 0.58838834764831849 0.083333333333333329
      vertex 1.0883883476483185 0.58838834764831849 0.16666666666666666
    endloop
  endfacet
  facet normal 0.92387953251128707 0.38268343236508923 -0
    outer loop
      vertex 1.125 0.5 0.083333333333333329
      vertex 1.0883883476483185 0.58838834764831849 0.16666666666666666
      vertex 1.125 0.5 0.16666666666666666
    endloop
  endfacet
  facet normal 0.38268343236508923 0.92387953251128707 0
    outer loop
      vertex 1.0883883476483185 0.58838834764831849 0.083333333333333329
      vertex 1 0.625 0.083333333333333329
      vertex 1 0.625 0.16666666666666666
    endloop
  endfacet
  facet normal 0.38268343236508923 0.92387953251128707 -0
    outer loop
      vertex 1.0883883476483185 0.58838834764831849 0.083333333333333329
      vertex 1 0.625 0.16666666666666666
      vertex 1.0883883476483185 0.58838834764831849 0.16666666666666666
    endloop
  endfacet
  facet normal -0.38268343236508923 0.92387953251128707 0
    outer loop
      vertex 1 0.625 0.083333333333333329
      vertex 0.91161165235168151 0.58838834764831849 0.083333333333333329
      vertex 0.91161165235168151 0.58838834764831849 0.16666666666666666
    endloop
  endfacet
  facet normal -0.38268343236508923 0.92387953251128707 0
    outer loop
      vertex 1 0.625 0.083333333333333329
      vertex 0.91161165235168151 0.58838834764831849 0.16666666666666666
      vertex 1 0.625 0.16666666666666666
    endloop
  endfacet
  facet normal -0.92387953251128707 0.38268343236508923 0
    outer loop
      vertex 0.91161165235168151 0.58838834764831849 0.083333333333333329
      vertex 0.875 0.5 0.083333333333333329
      vertex 0.875 0.5 0.16666666666666666
    endloop
  endfacet
  facet normal -0.92387953251128707 0.38268343236508923 0
    outer loop
      vertex 0.91161165235168151 0.58838834764831849 0.083333333333333329
      vertex 0.875 0.5 0.16666666666666666
      vertex 0.91161165235168151 0.58838834764831849 0.16666666666666666
    endloop
  endfacet
  facet normal -0.92387953251128685 -0.38268343236508939 0
    outer loop
      vertex 0.875 0.5 0.083333333333333329
      vertex 0.91161165235168151 0.41161165235168157 0.083333333333333329
      vertex 0.91161165235168151 0.41161165235168157 0.16666666666666666
    endloop
  endfacet
  facet normal -0.92387953251128685 -0.38268343236508939 0
    outer loop
      vertex 0.875 0.5 0.083333333333333329
      vertex 0.91161165235168151 0.41161165235168157 0.16666666666666666
      vertex 0.875 0.5 0.16666666666666666
    endloop
  endfacet
  facet normal -0.38268343236508967 -0.92387953251128685 0
    outer loop
      vertex 0.91161165235168151 0.41161165235168157 0.083333333333333329
      vertex 1 0.375 0.083333333333333329
      vertex 1 0.375 0.16666666666666666
    endloop
  endfacet
  facet normal -0.38268343236508967 -0.92387953251128685 0
    outer loop
      vertex 0.91161165235168151 0.41161165235168157 0.083333333333333329
      vertex 1 0.375 0.16666666666666666
      vertex 0.91161165235168151 0.41161165235168157 0.16666666666666666
    endloop
  endfacet
  facet normal 0.38268343236508923 -0.92387953251128707 0
    outer loop
      vertex 1 0.375 0.083333333333333329
      vertex 1.0883883476483185 0.41161165235168151 0.083333333333333329
      vertex 1.0883883476483185 0.41161165235168151 0.16666666666666666
    endloop
  endfacet
  facet normal 0.38268343236508923 -0.92387953251128707 0
    outer loop
      vertex 1 0.375 0.083333333333333329
      vertex 1.0883883476483185 0.41161165235168151 0.16666666666666666
      vertex 1 0.375 0.16666666666666666
    endloop
  endfacet
  facet normal 0.92387953251128707 -0.38268343236508923 0
    outer loop
      vertex 1.0883883476483185 0.41161165235168151 0.083333333333333329
      vertex 1.125 0.5 0.083333333333333329
      vertex 1.125 0.5 0.16666666666666666
    endloop
  endfacet
  facet normal 0.92387953251128707 -0.38268343236508923 0
    outer loop
      vertex 1.0883883476483185 0.41161165235168151 0.083333333333333329
      vertex 1.125 0.5 0.16666666666666666
      vertex 1.0883883476483185 0.41161165235168151 0.16666666666666666
    endloop
  endfacet
  facet normal 0.92387953251128707 0.38268343236508917 0
    outer loop
      vertex 1.125 0.5 0.16666666666666666
      vertex 1.0883883476483185 0.58838834764831849 0.16666666666666666
      vertex 1.0883883476483185 0.58838834764831849 0.25
    endloop
  endfacet
  facet normal 0.92387953251128707 0.38268343236508917 -0
    outer loop
      vertex 1.125 0.5 0.16666666666666666
      vertex 1.0883883476483185 0.58838834764831849 0.25
      vertex 1.125 0.5 0.25
    endloop
  endfacet
  facet normal 0.38268343236508917 0.92387953251128707 0
    outer loop
      vertex 1.0883883476483185 0.58838834764831849 0.16666666666666666
      vertex 1 0.625 0.16666666666666666
      vertex 1 0.625 0.25
    endloop
  endfacet
  facet normal 0.38268343236508917 0.92387953251128707 -0
    outer loop
      vertex 1.0883883476483185 0.58838834764831849 0.16666666666666666
      vertex 1 0.625 0.25
      vertex 1.0883883476483185 0.58838834764831849 0.25
    endloop
  endfacet
  facet normal -0.38268343236508917 0.92387953251128707 0
    outer loop
      vertex 1 0.625 0.16666666666666666
      vertex 0.91161165235168151 0.58838834764831849 0.16666666666666666
      vertex 0.91161165235168151 0.58838834764831849 0.25
    endloop
  endfacet
  facet normal -0.38268343236508917 0.92387953251128707 0
    outer loop
      vertex 1 0.625 0.16666666666666666
      vertex 0.91161165235168151 0.58838834764831849 0.25
      vertex 1 0.625 0.25
    endloop
  endfacet
  facet normal -0.92387953251128707 0.38268343236508917 0
    outer loop
      vertex 0.91161165235168151 0.58838834764831849 0.16666666666666666
      vertex 0.875 0.5 0.16666666666666666
      vertex 0.875 0.5 0.25
    endloop
  endfacet
  facet normal -0.92387953251128707 0.38268343236508917 0
    outer loop
      vertex 0.91161165235168151 0.58838834764831849 0.16666666666666666
      vertex 0.875 0.5 0.25
      vertex 0.91161165235168151 0.58838834764831849 0.25
    endloop
  endfacet
  facet normal -0.92387953251128696 -0.38268343236508945 0
    outer loop
      vertex 0.875 0.5 0.16666666666666666
      vertex 0.91161165235168151 0.41161165235168157 0.16666666666666666
      vertex 0.91161165235168151 0.41161165235168157 0.25
    endloop
  endfacet
  facet normal -0.92387953251128696 -0.38268343236508945 0
    outer loop
      vertex 0.875 0.5 0.16666666666666666
      vertex 0.91161165235168151 0.41161165235168157 0.25
      vertex 0.875 0.5 0.25
    endloop
  endfacet
  facet normal -0.38268343236508962 -0.92387953251128685 0
    outer loop
      vertex 0.91161165235168151 0.41161165235168157 0.16666666666666666
      vertex 1 0.375 0.16666666666666666
      vertex 1 0.375 0.25
    endloop
  endfacet
  facet normal -0.38268343236508962 -0.92387953251128685 0
    outer loop
      vertex 0.91161165235168151 0.41161165235168157 0.16666666666666666
      vertex 1 0.375 0.25
      vertex 0.91161165235168151 0.41161165235168157 0.25
    endloop
  endfacet
  facet normal 0.38268343236508917 -0.92387953251128707 0
    outer loop
      vertex 1 0.375 0.16666666666666666
      vertex 1.0883883476483185 0.41161165235168151 0.16666666666666666
      vertex 1.0883883476483185 0.41161165235168151 0.25
    endloop
  endfacet
  facet normal 0.38268343236508917 -0.92387953251128707 0
    outer loop
      vertex 1 0.375 0.16666666666666666
      vertex 1.0883883476483185 0.41161165235168151 0.25
      vertex 1 0.375 0.25
    endloop
  endfacet
  facet normal 0.92387953251128707 -0.38268343236508917 0
    outer loop
      vertex 1.0883883476483185 0.41161165235168151 0.16666666666666666
      vertex 1.125 0.5 0.16666666666666666
      vertex 1.125 0.5 0.25
    endloop
  endfacet
  facet normal 0.92387953251128707 -0.38268343236508917 0
    outer loop
      vertex 1.0883883476483185 0.41161165235168151 0.16666666666666666
      vertex 1.125 0.5 0.25
      vertex 1.0883883476483185 0.41161165235168151 0.25
    endloop
  endfacet
endsolid cylinder_channel_r125_8x3
